<svg version="1.1" id="Layer_1" xmlns="http://www.w3.org/2000/svg" xmlns:xlink="http://www.w3.org/1999/xlink" x="0px" y="0px"
	 width="100%" viewBox="0 0 1497 1047" enable-background="new 0 0 1497 1047" xml:space="preserve">
<path fill="none" opacity="1.000000" stroke="none"
	d="
M818.000000,0.999997 
	C1044.610962,1.000000 1271.221802,1.000000 1497.916382,1.000000 
	C1497.916382,350.000000 1497.916382,699.000000 1497.920532,1048.000000 
	C1493.925659,1048.000000 1489.926758,1048.000000 1485.760864,1047.660034 
	C1484.584106,1046.550781 1483.658813,1045.281738 1482.550415,1045.093872 
	C1475.671265,1043.928101 1468.749878,1043.013672 1461.844727,1041.999390 
	C1448.197632,1039.994995 1434.497803,1038.286255 1420.919312,1035.891235 
	C1403.910889,1032.891357 1386.982910,1029.420044 1370.056030,1025.976440 
	C1350.467407,1021.991394 1330.840210,1018.148315 1311.372681,1013.628052 
	C1292.124146,1009.158691 1272.966187,1004.236694 1253.925537,998.948181 
	C1225.028809,990.922241 1196.166260,982.740967 1167.483154,973.989563 
	C1146.795532,967.677612 1126.215698,960.886841 1105.960083,953.313843 
	C1076.119141,942.157227 1046.393311,930.629211 1017.024597,918.292358 
	C991.494446,907.567871 966.391724,895.790100 941.344727,883.959839 
	C905.271240,866.921692 870.002625,848.294678 835.704224,827.909424 
	C813.721863,814.844177 791.835999,801.582520 770.359436,787.708252 
	C735.455505,765.159607 701.365417,741.413208 668.914429,715.401062 
	C648.338806,698.908142 627.669189,682.526123 607.354919,665.715881 
	C595.313660,655.751709 583.743774,645.201721 572.213074,634.640991 
	C560.141479,623.584839 548.199158,612.375000 536.520508,600.906250 
	C526.582336,591.146729 517.056824,580.964478 507.425415,570.895813 
	C494.727173,557.621033 482.046082,544.328796 469.474365,530.934570 
	C463.735291,524.819946 458.122925,518.571777 452.720276,512.159058 
	C441.261444,498.557709 429.890930,484.879639 418.648773,471.098785 
	C408.900665,459.149323 399.379425,447.014771 389.659485,434.838776 
	C395.828583,429.415405 401.643280,424.116791 407.659851,419.058228 
	C416.639771,411.508148 425.790619,404.161713 434.815216,396.664276 
	C443.361633,389.564056 451.719147,382.231781 460.374054,375.268005 
	C474.428528,363.959625 488.651978,352.861176 502.815247,341.688202 
	C518.639343,329.205078 534.306824,316.515137 550.352783,304.323669 
	C567.744324,291.109802 585.410278,278.251709 603.105530,265.444275 
	C632.831543,243.929321 662.470154,222.283661 692.540222,201.257385 
	C713.391296,186.677414 734.760498,172.820572 756.160522,159.048264 
	C780.511963,143.376602 805.066406,128.014648 829.701965,112.792122 
	C847.073792,102.057961 864.694519,91.724358 882.269897,81.323013 
	C891.117981,76.086578 900.097595,71.070961 909.051208,66.014908 
	C911.331482,64.727287 911.963806,63.153412 909.826965,61.433796 
	C906.563049,58.807228 903.188660,56.287807 899.680725,53.999523 
	C879.176453,40.624153 858.620239,27.328352 838.080139,14.007870 
	C831.388977,9.668577 824.693481,5.335773 818.000000,0.999997 
z"/>
<path fill="none" opacity="1.000000" stroke="none"
	d="
M1470.000000,1048.000000 
	C980.393250,1048.000000 490.786499,1048.000000 1.089880,1048.000000 
	C1.089880,699.102661 1.089880,350.205261 1.089880,1.000000 
	C271.697510,1.000000 542.395142,1.000000 813.465210,1.344728 
	C810.057861,4.129185 806.215454,6.477830 802.508484,9.023554 
	C779.755737,24.648609 756.880005,40.101116 734.348877,56.040241 
	C715.595947,69.306496 697.063721,82.904510 678.792847,96.826721 
	C659.659912,111.405777 640.867065,126.436638 622.088623,141.473709 
	C604.027466,155.936386 586.062988,170.524765 568.266357,185.311157 
	C554.169312,197.023788 540.282349,208.995972 526.499329,221.078003 
	C510.804596,234.835861 495.269409,248.777695 479.776978,262.763763 
	C467.417816,273.921143 455.118225,285.149323 442.988892,296.555237 
	C427.904907,310.739594 412.903351,325.016296 398.088837,339.481171 
	C384.137970,353.102783 370.478760,367.023041 356.683533,380.804199 
	C355.533630,381.952942 354.325165,383.043030 352.947235,384.346375 
	C350.076996,380.139618 347.274811,376.263397 344.709808,372.236115 
	C326.725586,343.999329 308.295746,316.030029 290.992645,287.380768 
	C276.622986,263.588440 262.734222,239.421005 250.192307,214.630600 
	C234.030380,182.684845 219.055099,150.119003 204.293930,117.492157 
	C196.180588,99.559113 189.229431,81.073990 182.362320,62.611618 
	C176.779785,47.602871 172.022705,32.283211 167.093506,17.038721 
	C166.141708,14.095098 165.303177,13.208789 162.423309,15.039158 
	C137.973389,30.578817 113.435928,45.980774 88.990440,61.527344 
	C67.970406,74.895432 47.036598,88.399109 25.802067,102.011154 
	C87.009026,238.441620 170.989243,359.888275 269.819977,471.332855 
	C171.880386,578.368469 81.267220,690.901978 5.245003,814.793396 
	C7.314178,814.252441 9.149049,813.438965 10.338415,812.066162 
	C17.831648,803.417236 25.067089,794.543945 32.606110,785.936035 
	C43.431541,773.575623 54.373146,761.314880 65.395958,749.129944 
	C76.454102,736.906006 87.599243,724.758728 98.841354,712.703796 
	C110.463463,700.241394 122.170967,687.856384 133.982285,675.573242 
	C146.875427,662.164978 159.834000,648.816528 172.950089,635.627014 
	C181.247192,627.283508 189.906982,619.301453 198.364883,611.116699 
	C219.950623,590.228088 241.501984,569.303955 263.093842,548.421692 
	C270.355927,541.398193 277.616608,534.369629 285.029053,527.506531 
	C291.519623,521.496887 298.222076,515.716003 305.417511,509.312012 
	C306.612000,510.725433 307.586731,512.061218 308.741119,513.217712 
	C327.579895,532.090271 346.405304,550.976501 365.320923,569.771912 
	C370.594482,575.011902 376.043335,580.088135 381.597137,585.031189 
	C395.448486,597.359314 409.397064,609.578308 423.325104,621.820068 
	C431.207764,628.748352 438.948975,635.852844 447.070648,642.490356 
	C459.786713,652.882690 472.687408,663.054626 485.662537,673.123108 
	C502.841644,686.453979 519.850586,700.037720 537.511841,712.705139 
	C559.264038,728.306885 581.377136,743.436462 603.769165,758.106140 
	C626.243591,772.829773 648.951172,787.250061 672.108826,800.863892 
	C697.593750,815.845825 723.499329,830.150330 749.613037,844.012634 
	C771.209229,855.476807 793.152954,866.347717 815.344727,876.612610 
	C843.132629,889.466125 871.089783,902.022095 899.420349,913.615479 
	C928.314209,925.439392 957.487488,936.705444 987.016724,946.819397 
	C1020.982544,958.453064 1055.347046,968.979980 1089.777832,979.179565 
	C1114.408936,986.476074 1139.364624,992.722168 1164.305420,998.913940 
	C1184.617676,1003.956665 1205.079712,1008.426453 1225.557373,1012.761963 
	C1238.679199,1015.540100 1251.954224,1017.591003 1265.153076,1020.008911 
	C1275.646484,1021.931213 1286.100586,1024.084595 1296.623291,1025.827148 
	C1308.150757,1027.735840 1319.730225,1029.335938 1331.299438,1030.984497 
	C1339.351562,1032.131836 1347.428101,1033.106201 1355.486816,1034.208862 
	C1364.501831,1035.442383 1373.490356,1036.890259 1382.524292,1037.958252 
	C1392.585693,1039.147583 1402.684204,1040.022461 1412.768188,1041.019165 
	C1426.270752,1042.353638 1439.771484,1043.707031 1453.279785,1044.982178 
	C1458.020386,1045.429565 1462.790283,1045.578125 1467.522949,1046.085815 
	C1468.406982,1046.180542 1469.177246,1047.334839 1470.000000,1048.000000 
M4.958857,817.668579 
	C4.042941,817.755310 3.127025,817.842102 2.211109,817.928833 
	C2.264512,818.283630 2.317914,818.638428 2.371316,818.993225 
	C3.231034,818.806030 4.090753,818.618896 4.958857,817.668579 
z"/>
<path fill="#000000" opacity="1.000000" stroke="none" 
	d="
M1470.399902,1048.000000 
	C1469.177246,1047.334839 1468.406982,1046.180542 1467.522949,1046.085815 
	C1462.790283,1045.578125 1458.020386,1045.429565 1453.279785,1044.982178 
	C1439.771484,1043.707031 1426.270752,1042.353638 1412.768188,1041.019165 
	C1402.684204,1040.022461 1392.585693,1039.147583 1382.524292,1037.958252 
	C1373.490356,1036.890259 1364.501831,1035.442383 1355.486816,1034.208862 
	C1347.428101,1033.106201 1339.351562,1032.131836 1331.299438,1030.984497 
	C1319.730225,1029.335938 1308.150757,1027.735840 1296.623291,1025.827148 
	C1286.100586,1024.084595 1275.646484,1021.931213 1265.153076,1020.008911 
	C1251.954224,1017.591003 1238.679199,1015.540100 1225.557373,1012.761963 
	C1205.079712,1008.426453 1184.617676,1003.956665 1164.305420,998.913940 
	C1139.364624,992.722168 1114.408936,986.476074 1089.777832,979.179565 
	C1055.347046,968.979980 1020.982544,958.453064 987.016724,946.819397 
	C957.487488,936.705444 928.314209,925.439392 899.420349,913.615479 
	C871.089783,902.022095 843.132629,889.466125 815.344727,876.612610 
	C793.152954,866.347717 771.209229,855.476807 749.613037,844.012634 
	C723.499329,830.150330 697.593750,815.845825 672.108826,800.863892 
	C648.951172,787.250061 626.243591,772.829773 603.769165,758.106140 
	C581.377136,743.436462 559.264038,728.306885 537.511841,712.705139 
	C519.850586,700.037720 502.841644,686.453979 485.662537,673.123108 
	C472.687408,663.054626 459.786713,652.882690 447.070648,642.490356 
	C438.948975,635.852844 431.207764,628.748352 423.325104,621.820068 
	C409.397064,609.578308 395.448486,597.359314 381.597137,585.031189 
	C376.043335,580.088135 370.594482,575.011902 365.320923,569.771912 
	C346.405304,550.976501 327.579895,532.090271 308.741119,513.217712 
	C307.586731,512.061218 306.612000,510.725433 305.417511,509.312012 
	C298.222076,515.716003 291.519623,521.496887 285.029053,527.506531 
	C277.616608,534.369629 270.355927,541.398193 263.093842,548.421692 
	C241.501984,569.303955 219.950623,590.228088 198.364883,611.116699 
	C189.906982,619.301453 181.247192,627.283508 172.950089,635.627014 
	C159.834000,648.816528 146.875427,662.164978 133.982285,675.573242 
	C122.170967,687.856384 110.463463,700.241394 98.841354,712.703796 
	C87.599243,724.758728 76.454102,736.906006 65.395958,749.129944 
	C54.373146,761.314880 43.431541,773.575623 32.606110,785.936035 
	C25.067089,794.543945 17.831648,803.417236 10.338415,812.066162 
	C9.149049,813.438965 7.314178,814.252441 5.245003,814.793396 
	C81.267220,690.901978 171.880386,578.368469 269.819977,471.332855 
	C170.989243,359.888275 87.009026,238.441620 25.802067,102.011154 
	C47.036598,88.399109 67.970406,74.895432 88.990440,61.527344 
	C113.435928,45.980774 137.973389,30.578817 162.423309,15.039158 
	C165.303177,13.208789 166.141708,14.095098 167.093506,17.038721 
	C172.022705,32.283211 176.779785,47.602871 182.362320,62.611618 
	C189.229431,81.073990 196.180588,99.559113 204.293930,117.492157 
	C219.055099,150.119003 234.030380,182.684845 250.192307,214.630600 
	C262.734222,239.421005 276.622986,263.588440 290.992645,287.380768 
	C308.295746,316.030029 326.725586,343.999329 344.709808,372.236115 
	C347.274811,376.263397 350.076996,380.139618 352.947235,384.346375 
	C354.325165,383.043030 355.533630,381.952942 356.683533,380.804199 
	C370.478760,367.023041 384.137970,353.102783 398.088837,339.481171 
	C412.903351,325.016296 427.904907,310.739594 442.988892,296.555237 
	C455.118225,285.149323 467.417816,273.921143 479.776978,262.763763 
	C495.269409,248.777695 510.804596,234.835861 526.499329,221.078003 
	C540.282349,208.995972 554.169312,197.023788 568.266357,185.311157 
	C586.062988,170.524765 604.027466,155.936386 622.088623,141.473709 
	C640.867065,126.436638 659.659912,111.405777 678.792847,96.826721 
	C697.063721,82.904510 715.595947,69.306496 734.348877,56.040241 
	C756.880005,40.101116 779.755737,24.648609 802.508484,9.023554 
	C806.215454,6.477830 810.057861,4.129185 813.918823,1.344728 
	C815.066711,1.000000 816.133362,1.000000 817.600037,0.999997 
	C824.693481,5.335773 831.388977,9.668577 838.080139,14.007870 
	C858.620239,27.328352 879.176453,40.624153 899.680725,53.999523 
	C903.188660,56.287807 906.563049,58.807228 909.826965,61.433796 
	C911.963806,63.153412 911.331482,64.727287 909.051208,66.014908 
	C900.097595,71.070961 891.117981,76.086578 882.269897,81.323013 
	C864.694519,91.724358 847.073792,102.057961 829.701965,112.792122 
	C805.066406,128.014648 780.511963,143.376602 756.160522,159.048264 
	C734.760498,172.820572 713.391296,186.677414 692.540222,201.257385 
	C662.470154,222.283661 632.831543,243.929321 603.105530,265.444275 
	C585.410278,278.251709 567.744324,291.109802 550.352783,304.323669 
	C534.306824,316.515137 518.639343,329.205078 502.815247,341.688202 
	C488.651978,352.861176 474.428528,363.959625 460.374054,375.268005 
	C451.719147,382.231781 443.361633,389.564056 434.815216,396.664276 
	C425.790619,404.161713 416.639771,411.508148 407.659851,419.058228 
	C401.643280,424.116791 395.828583,429.415405 389.659485,434.838776 
	C399.379425,447.014771 408.900665,459.149323 418.648773,471.098785 
	C429.890930,484.879639 441.261444,498.557709 452.720276,512.159058 
	C458.122925,518.571777 463.735291,524.819946 469.474365,530.934570 
	C482.046082,544.328796 494.727173,557.621033 507.425415,570.895813 
	C517.056824,580.964478 526.582336,591.146729 536.520508,600.906250 
	C548.199158,612.375000 560.141479,623.584839 572.213074,634.640991 
	C583.743774,645.201721 595.313660,655.751709 607.354919,665.715881 
	C627.669189,682.526123 648.338806,698.908142 668.914429,715.401062 
	C701.365417,741.413208 735.455505,765.159607 770.359436,787.708252 
	C791.835999,801.582520 813.721863,814.844177 835.704224,827.909424 
	C870.002625,848.294678 905.271240,866.921692 941.344727,883.959839 
	C966.391724,895.790100 991.494446,907.567871 1017.024597,918.292358 
	C1046.393311,930.629211 1076.119141,942.157227 1105.960083,953.313843 
	C1126.215698,960.886841 1146.795532,967.677612 1167.483154,973.989563 
	C1196.166260,982.740967 1225.028809,990.922241 1253.925537,998.948181 
	C1272.966187,1004.236694 1292.124146,1009.158691 1311.372681,1013.628052 
	C1330.840210,1018.148315 1350.467407,1021.991394 1370.056030,1025.976440 
	C1386.982910,1029.420044 1403.910889,1032.891357 1420.919312,1035.891235 
	C1434.497803,1038.286255 1448.197632,1039.994995 1461.844727,1041.999390 
	C1468.749878,1043.013672 1475.671265,1043.928101 1482.550415,1045.093872 
	C1483.658813,1045.281738 1484.584106,1046.550781 1485.296997,1047.660034 
	C1484.555542,1048.000000 1484.111084,1048.000000 1483.186646,1047.606323 
	C1479.804443,1047.475098 1476.902222,1047.737549 1474.000000,1048.000000 
	C1472.933350,1048.000000 1471.866577,1048.000000 1470.399902,1048.000000 
z"/>
<path fill="#FFFFFF" opacity="1.000000" stroke="none" 
	d="
M1474.449829,1048.000000 
	C1476.902222,1047.737549 1479.804443,1047.475098 1482.853271,1047.606323 
	C1480.299927,1048.000000 1477.599731,1048.000000 1474.449829,1048.000000 
z"/>
<path fill="#000000" opacity="1.000000" stroke="none" 
	d="
M4.954664,818.050171 
	C4.090753,818.618896 3.231034,818.806030 2.371316,818.993225 
	C2.317914,818.638428 2.264512,818.283630 2.211109,817.928833 
	C3.127025,817.842102 4.042941,817.755310 4.954664,818.050171 
z"/>
</svg>